<svg width="44" height="48" viewBox="0 0 44 48" fill="none" xmlns="http://www.w3.org/2000/svg">
<path d="M43.2379 9.60281L24.6153 8.08716L0.763672 9.60281V46.8254C0.763672 47.4742 1.28952 48 1.93827 48H42.0631C42.7119 48 43.2379 47.474 43.2379 46.8251L43.2379 9.60281Z" fill="#F6F9F9"/>
<path d="M43.2379 9.60292L39.3747 7.67139V37.1133C39.3747 42.0591 35.3653 46.0685 30.4195 46.0685H0.763672V46.8255C0.763672 47.4743 1.28952 48.0001 1.93827 48.0001H42.063C42.7118 48.0001 43.2379 47.4741 43.2379 46.8252V9.60292Z" fill="#E7ECF1"/>
<path d="M42.0631 2.73999H1.93845C1.28961 2.73999 0.763672 3.26593 0.763672 3.91477V9.60287H43.2379V3.91477C43.2379 3.26593 42.7119 2.73999 42.0631 2.73999Z" fill="#61A2F9"/>
<path d="M42.0635 2.73999H39.375V9.60287H43.2382V3.91477C43.2382 3.26593 42.7122 2.73999 42.0635 2.73999Z" fill="#5490F9"/>
<path d="M6.76797 6.46556H6.10797C5.46156 6.46556 4.9375 5.9415 4.9375 5.29509V1.17047C4.9375 0.524062 5.46156 0 6.10797 0H6.76797C7.41438 0 7.93844 0.524062 7.93844 1.17047V5.295C7.93844 5.9415 7.41447 6.46556 6.76797 6.46556Z" fill="#DAE4EA"/>
<path d="M14.5492 6.46556H13.8892C13.2428 6.46556 12.7188 5.9415 12.7188 5.29509V1.17047C12.7188 0.524062 13.2428 0 13.8892 0H14.5492C15.1956 0 15.7197 0.524062 15.7197 1.17047V5.295C15.7197 5.9415 15.1957 6.46556 14.5492 6.46556Z" fill="#DAE4EA"/>
<path d="M22.3305 6.46556H21.6705C21.0241 6.46556 20.5 5.9415 20.5 5.29509V1.17047C20.5 0.524062 21.0241 0 21.6705 0H22.3305C22.9769 0 23.5009 0.524062 23.5009 1.17047V5.295C23.5009 5.9415 22.9769 6.46556 22.3305 6.46556Z" fill="#DAE4EA"/>
<path d="M30.1117 6.46556H29.4517C28.8053 6.46556 28.2812 5.9415 28.2812 5.29509V1.17047C28.2812 0.524062 28.8052 0 29.4517 0H30.1117C30.7581 0 31.2822 0.524062 31.2822 1.17047V5.295C31.2822 5.9415 30.7581 6.46556 30.1117 6.46556Z" fill="#DAE4EA"/>
<path d="M37.8949 6.46556H37.2349C36.5885 6.46556 36.0645 5.9415 36.0645 5.29509V1.17047C36.0645 0.524062 36.5884 0 37.2349 0H37.8949C38.5413 0 39.0654 0.524062 39.0654 1.17047V5.295C39.0654 5.9415 38.5413 6.46556 37.8949 6.46556Z" fill="#DAE4EA"/>
<path d="M13.7793 18.9244V17.2256C13.7793 17.0161 13.9492 16.8462 14.1587 16.8462H35.6164C35.8259 16.8462 35.9958 17.0161 35.9958 17.2256V18.9244C35.9958 19.134 35.8259 19.3038 35.6164 19.3038H14.1587C13.9492 19.3038 13.7793 19.134 13.7793 18.9244Z" fill="#DAE4EA"/>
<path d="M13.7793 23.8397V22.1409C13.7793 21.9314 13.9492 21.7615 14.1587 21.7615H35.6164C35.8259 21.7615 35.9958 21.9314 35.9958 22.1409V23.8397C35.9958 24.0493 35.8259 24.2191 35.6164 24.2191H14.1587C13.9492 24.2192 13.7793 24.0493 13.7793 23.8397Z" fill="#DAE4EA"/>
<path d="M13.7793 28.7553V27.0564C13.7793 26.8469 13.9492 26.677 14.1587 26.677H35.6164C35.8259 26.677 35.9958 26.8469 35.9958 27.0564V28.7553C35.9958 28.9648 35.8259 29.1347 35.6164 29.1347H14.1587C13.9492 29.1347 13.7793 28.9648 13.7793 28.7553Z" fill="#DAE4EA"/>
<path d="M13.7793 33.6705V31.9717C13.7793 31.7622 13.9492 31.5923 14.1587 31.5923H35.6164C35.8259 31.5923 35.9958 31.7622 35.9958 31.9717V33.6705C35.9958 33.8801 35.8259 34.0499 35.6164 34.0499H14.1587C13.9492 34.05 13.7793 33.8802 13.7793 33.6705Z" fill="#DAE4EA"/>
<path d="M13.7793 38.5858V36.887C13.7793 36.6774 13.9492 36.5076 14.1587 36.5076H35.6164C35.8259 36.5076 35.9958 36.6774 35.9958 36.887V38.5858C35.9958 38.7954 35.8259 38.9652 35.6164 38.9652H14.1587C13.9492 38.9652 13.7793 38.7954 13.7793 38.5858Z" fill="#DAE4EA"/>
<path d="M8.00781 18.9244V17.2256C8.00781 17.0161 8.17769 16.8462 8.38722 16.8462H10.5018C10.7113 16.8462 10.8812 17.0161 10.8812 17.2256V18.9244C10.8812 19.134 10.7113 19.3038 10.5018 19.3038H8.38722C8.17769 19.3038 8.00781 19.134 8.00781 18.9244Z" fill="#DAE4EA"/>
<path d="M8.00781 23.8397V22.1409C8.00781 21.9314 8.17769 21.7615 8.38722 21.7615H10.5018C10.7113 21.7615 10.8812 21.9314 10.8812 22.1409V23.8397C10.8812 24.0493 10.7113 24.2191 10.5018 24.2191H8.38722C8.17769 24.2192 8.00781 24.0493 8.00781 23.8397Z" fill="#DAE4EA"/>
<path d="M8.00781 28.7553V27.0564C8.00781 26.8469 8.17769 26.677 8.38722 26.677H10.5018C10.7113 26.677 10.8812 26.8469 10.8812 27.0564V28.7553C10.8812 28.9648 10.7113 29.1347 10.5018 29.1347H8.38722C8.17769 29.1347 8.00781 28.9648 8.00781 28.7553Z" fill="#DAE4EA"/>
<path d="M8.00781 33.6705V31.9717C8.00781 31.7622 8.17769 31.5923 8.38722 31.5923H10.5018C10.7113 31.5923 10.8812 31.7622 10.8812 31.9717V33.6705C10.8812 33.8801 10.7113 34.0499 10.5018 34.0499H8.38722C8.17769 34.05 8.00781 33.8802 8.00781 33.6705Z" fill="#DAE4EA"/>
<path d="M8.00781 38.5858V36.887C8.00781 36.6774 8.17769 36.5076 8.38722 36.5076H10.5018C10.7113 36.5076 10.8812 36.6774 10.8812 36.887V38.5858C10.8812 38.7954 10.7113 38.9652 10.5018 38.9652H8.38722C8.17769 38.9652 8.00781 38.7954 8.00781 38.5858Z" fill="#DAE4EA"/>
</svg>
